<svg fill="none" height="20" viewBox="0 0 20 20" width="20" xmlns="http://www.w3.org/2000/svg">
  <path
    d="M17.7657 2.23427H2.23427C1.61243 2.23427 1.0846 2.45119 0.650759 2.88503C0.216918 3.31887 0 3.83948 0 4.44685V17.7874C0 18.3948 0.216918 18.9154 0.650759 19.3492C1.0846 19.7831 1.61243 20 2.23427 20H17.7657C18.3876 20 18.9154 19.7831 19.3492 19.3492C19.7831 18.9154 20 18.3948 20 17.7874V4.44685C20 3.83948 19.7831 3.31887 19.3492 2.88503C18.9154 2.45119 18.3876 2.23427 17.7657 2.23427ZM17.7657 17.7874H2.23427V8.89371H17.7657V17.7874ZM6.11714 0H3.88286V3.90456H6.11714V0ZM16.1171 0H13.8829V3.90456H16.1171V0Z"
    fill="#999999"/>
</svg>
